PathFileType	4	(X/Y/Z)	/Users/mathieubourgeois/Desktop/Analyse/Traitement/Sujet_06/Data/Transformed_Sujet_06_velo_60.trc
DataRate	CameraRate	NumFrames	NumMarkers	Units	OrigDataRate	OrigDataStartFrame	OrigNumFrames
120.000000	120.000000	4	36	mm	120.000000	934	1868
Frame#	Time	RFHD			RANE			STRN			LANI			LKNE			T10			RHUM			RWRB			C7			LFWT			LTOE			RTOE			LWRA			LBWT			RBWT			RFWT			LKNI			RKNI			RKNE			LANE			RANI			LHEE			RHEE			LHUM			LRAD			RRAD			RWRA			LWRB			LFHD			LBHD			RBHD			RSHO			LSHO			CLAV			LCAR			RCAR			
		X1	Y1	Z1	X2	Y2	Z2	X3	Y3	Z3	X4	Y4	Z4	X5	Y5	Z5	X6	Y6	Z6	X7	Y7	Z7	X8	Y8	Z8	X9	Y9	Z9	X10	Y10	Z10	X11	Y11	Z11	X12	Y12	Z12	X13	Y13	Z13	X14	Y14	Z14	X15	Y15	Z15	X16	Y16	Z16	X17	Y17	Z17	X18	Y18	Z18	X19	Y19	Z19	X20	Y20	Z20	X21	Y21	Z21	X22	Y22	Z22	X23	Y23	Z23	X24	Y24	Z24	X25	Y25	Z25	X26	Y26	Z26	X27	Y27	Z27	X28	Y28	Z28	X29	Y29	Z29	X30	Y30	Z30	X31	Y31	Z31	X32	Y32	Z32	X33	Y33	Z33	X34	Y34	Z34	X35	Y35	Z35	X36	Y36	Z36	

935	7.783333333333333	252.6195831298828	1385.343627929688	111.7981338500976	-209.3239288330078	397.3248291015625	195.6838073730468	-54.68776321411134	1201.106201171875	40.91642761230461	93.39115142822266	440.1388854980469	-53.54092025756837	113.4502563476563	834.2241821289062	-123.0123901367188	-208.2560424804688	1350.432373046875	48.20030975341786	186.4739837646484	1128.947509765625	212.1624145507812	389.9587707519531	1008.592163085938	180.2836303710938	25.23867416381835	1459.849609375	45.00002670288077	-187.2424621582031	1112.920288085938	-61.34670639038095	247.238510131836	372.2125244140625	-123.5837783813477	-94.10017395019534	246.3164825439453	199.1557312011718	411.213134765625	1026.163940429688	-140.6904449462891	-347.2844848632812	1137.829956054688	-9.340077400207631	-341.8791809082031	1135.343872070312	100.1106948852538	-184.7828063964844	1107.011962890625	147.7157135009765	145.3140106201172	790.1302490234375	-32.4241638183594	41.85334396362303	669.9074096679688	125.7452545166015	21.60809707641599	718.3619995117188	219.7573547363281	62.06471252441408	436.0132141113281	-132.8250274658203	-176.2063293457032	388.5408020019531	120.5369110107421	12.71405601501466	420.3280944824219	-90.54843902587893	-260.582763671875	411.7467041015625	146.4468078613281	180.0244750976563	1119.736938476562	-185.6731414794922	217.3175201416016	1168.086303710938	-203.4006805419922	227.3027191162109	1162.3671875	255.1843566894531	422.2572937011718	1028.12451171875	232.1484832763672	428.2050476074219	1029.778930664062	-201.7079467773438	255.4296417236328	1379.413696289062	-31.81533622741705	178.1065216064453	1508.2841796875	-37.65316772460945	176.8991088867188	1533.74169921875	89.42734527587884	47.79785156249998	1411.06103515625	180.4549713134765	23.90610694885255	1399.96875	-114.8008728027345	29.86164665222168	1323.882690429688	40.05315017700188	486.4210205078125	1045.588989257812	-126.9080200195313	484.7311096191406	1050.097290039062	158.9566192626953	
936	7.791666666666667	252.8068695068359	1385.43359375	112.1294860839843	-209.9347839355469	406.6356506347656	195.8399047851562	-54.31127929687501	1201.196899414062	40.73725509643547	94.51124572753906	430.722900390625	-53.77563476562501	110.0603637695313	826.2152709960938	-122.9024047851563	-207.9034423828125	1350.411376953125	47.79162979125965	186.5506591796875	1128.909301757812	212.288101196289	390.0388488769531	1008.574157714844	180.3303527832031	25.5605125427246	1459.97802734375	45.12141799926749	-186.8170623779297	1112.718139648438	-61.82366943359384	249.0155944824219	363.8752746582031	-123.6389236450195	-96.35215759277347	254.4742279052734	199.2183074951172	411.3397521972656	1026.164916992188	-140.7509613037109	-346.8136291503906	1137.839477539062	-9.904471397400014	-341.6082153320312	1135.587036132812	99.6139678955077	-184.4536590576172	1107.306396484375	147.2192382812499	142.3550720214844	781.9593505859375	-32.6764068603516	45.90418243408202	674.7890625	125.9388427734375	25.92160797119138	723.041748046875	220.0679779052734	63.19554519653322	426.3237609863281	-133.0141906738282	-177.0408630371094	397.5109558105469	120.6715087890624	14.10476303100587	410.2467346191406	-90.7764587402344	-261.1401672363281	421.6905822753906	146.7685089111328	180.6111907958985	1120.183349609375	-186.0172424316407	217.8819427490235	1168.548828125	-203.4765930175782	227.3703155517578	1162.285766601562	255.3297271728515	422.3349609374999	1028.068725585938	232.1916961669922	428.4163208007812	1029.7822265625	-201.731201171875	255.8718719482422	1379.598754882812	-31.46930313110357	178.5217742919922	1508.46142578125	-37.31229400634773	177.1173248291016	1533.841918945312	89.78891754150384	47.94601440429685	1411.009155273438	180.5472259521484	24.30820846557619	1400.341552734375	-114.6729125976563	30.18306541442871	1323.962768554688	40.07950592041009	486.5640563964844	1045.528442382812	-126.8678741455078	484.8221435546875	1050.049072265625	158.9653778076172	
937	7.8	253.0220794677734	1385.512817382812	112.5363159179687	-210.1461334228516	416.0025329589844	196.0796661376953	-54.0329933166504	1201.2626953125	40.61293411254875	92.18858337402344	422.5294494628906	-54.26476669311525	106.7754211425781	817.630615234375	-123.1234207153321	-207.6174011230469	1350.387084960938	47.479579925537	186.6249237060547	1128.832153320312	212.4976959228515	390.11572265625	1008.53076171875	180.3513946533203	25.89131546020507	1460.10693359375	45.26923370361319	-186.4314727783203	1112.484741210938	-62.26509857177744	250.3216552734375	355.35546875	-123.6709899902344	-98.15061950683597	262.7852478027344	199.3260955810547	411.4873962402344	1026.2041015625	-140.79638671875	-346.3392639160156	1137.84375	-10.45572757720958	-341.3356018066406	1135.783813476562	99.09455108642567	-184.1275939941407	1107.60498046875	146.7584991455077	134.0620422363281	769.96044921875	-28.72184944152835	49.9739418029785	679.8942260742188	126.2109222412109	30.33482170104978	727.9462890625	220.4716491699218	63.95853805541994	416.5817260742188	-133.2256774902344	-177.3959045410157	406.5862426757812	120.7899703979492	15.03078174591066	400.2322387695312	-91.03145599365237	-261.2385559082031	431.6671142578125	147.0704040527343	181.1446990966797	1120.603759765625	-186.3832397460938	218.3534240722657	1169.02734375	-203.581039428711	227.4418029785156	1162.204467773438	255.4788665771484	422.4210815429687	1028.012573242188	232.2279663085938	428.6443176269531	1029.816040039062	-201.75830078125	256.27392578125	1379.775146484375	-31.12110137939458	178.9291839599609	1508.640502929688	-36.99169540405281	177.3366241455078	1533.914916992188	90.10904693603509	48.0416679382324	1410.942016601562	180.6547393798827	24.8021640777588	1400.71142578125	-114.5082168579102	31.26704597473144	1323.510620117188	39.30029296874993	486.7339477539062	1045.469116210938	-126.8789596557617	484.8818969726562	1050.02880859375	158.9804382324219	
938	7.808333333333334	253.2296905517578	1385.576293945312	112.8519058227538	-209.8641510009766	425.3907775878906	196.2689208984374	-53.6950798034668	1201.32275390625	40.46086883544914	93.87592315673828	414.8458862304688	-55.0673179626465	103.3085632324219	808.9864501953125	-123.4573287963867	-207.3382110595703	1350.347045898438	47.20334243774403	186.7002716064453	1128.74609375	212.6768951416015	390.1763916015625	1008.499450683594	180.3904266357422	26.17538261413574	1460.184204101562	45.41678619384756	-186.0407257080078	1112.251220703125	-62.71700286865244	251.1363677978516	346.7342224121094	-123.7036895751953	-99.44973754882815	271.1375732421875	199.3472900390625	411.6299438476562	1026.232666015625	-140.8424530029297	-345.8875732421875	1137.810791015625	-10.95591640472423	-341.0557861328125	1135.96484375	98.62191772460926	-183.8551940917969	1107.862182617188	146.3505706787109	130.9884490966797	761.8718872070312	-30.15449523925784	54.18141555786131	685.1481323242188	126.454231262207	34.84415817260739	733.0346069335938	220.7914123535156	64.25364685058595	406.9552307128906	-133.4486846923828	-183.7206726074219	417.5365295410156	121.531379699707	14.11278820037843	390.8745727539062	-91.94438934326175	-260.9341125488281	441.6539001464844	147.4365234374999	181.6069641113282	1120.9990234375	-186.6899108886719	218.8287200927735	1169.493041992188	-203.6986846923829	227.5031280517578	1162.11962890625	255.6342010498046	422.5358886718749	1027.970458984375	232.2593994140625	428.8126525878906	1029.838500976562	-201.7743072509766	256.6571655273438	1379.952758789062	-30.75219345092779	179.2573394775391	1508.808349609375	-36.68657302856452	177.5524444580078	1534.009155273438	90.45093536376946	48.09337997436521	1410.874389648438	180.7848968505859	25.23500061035158	1401.079711914062	-114.3166885375977	30.85629653930664	1324.06884765625	40.1389083862304	486.8833923339844	1045.423461914062	-126.8686294555664	484.9429626464844	1049.98779296875	158.9704284667969	
